<svg xmlns="http://www.w3.org/2000/svg" width="38.644" height="38.644" viewBox="0 0 38.644 38.644">
  <g id="Icon_ionic-ios-chatbubbles" data-name="Icon ionic-ios-chatbubbles" transform="translate(-3.375 -3.375)">
    <path id="Path_19" data-name="Path 19" d="M37.411,28.7a2.251,2.251,0,0,1,.307-1.133,3.128,3.128,0,0,1,.2-.288,15.052,15.052,0,0,0,2.564-8.388c.028-8.565-7.2-15.513-16.136-15.513A16.025,16.025,0,0,0,8.521,15.721,14.928,14.928,0,0,0,8.177,18.9,15.758,15.758,0,0,0,24.062,34.606a19.131,19.131,0,0,0,4.385-.715c1.05-.288,2.09-.669,2.36-.771a2.456,2.456,0,0,1,.864-.158,2.415,2.415,0,0,1,.938.186l5.267,1.867a1.256,1.256,0,0,0,.362.093.739.739,0,0,0,.743-.743,1.193,1.193,0,0,0-.046-.251Z" transform="translate(1.542 0)" fill="#fff"/>
    <path id="Path_20" data-name="Path 20" d="M28.5,32.317c-.334.093-.762.2-1.226.3a17.145,17.145,0,0,1-3.158.418A15.758,15.758,0,0,1,8.233,17.324a17.563,17.563,0,0,1,.139-1.988c.056-.4.121-.8.214-1.189.093-.418.2-.836.325-1.245l-.743.66A13.824,13.824,0,0,0,3.375,23.957a13.67,13.67,0,0,0,2.3,7.617c.214.325.334.576.3.743s-1.105,5.759-1.105,5.759a.745.745,0,0,0,.251.715.757.757,0,0,0,.474.167.666.666,0,0,0,.269-.056l5.211-2.053a1.451,1.451,0,0,1,.529-.1,1.466,1.466,0,0,1,.585.121,15.634,15.634,0,0,0,5.639,1.115,14.59,14.59,0,0,0,11.157-5.118s.3-.409.641-.892C29.283,32.094,28.893,32.215,28.5,32.317Z" transform="translate(0 3.06)" fill="#fff"/>
  </g>
</svg>
