<svg xmlns="http://www.w3.org/2000/svg" width="59.573" height="59.969" viewBox="0 0 59.573 59.969">
  <g id="noun_Music_love_815216" data-name="noun_Music love_815216" transform="translate(-4.474 -5.812)">
    <path id="Path_5" data-name="Path 5" d="M59.839,22.459a4.464,4.464,0,0,0-2.75.728c-2.6-8.131-9.224-14.846-17.632-16.8A23.367,23.367,0,0,0,16.532,14.23a26.133,26.133,0,0,0-4.979,9.035A4.535,4.535,0,0,0,4.484,27.24L5.755,46.96c.308,4.755,7.137,5.709,8.732,1.213-4.182-5.672-5.6-14.618-.955-20.451l-.005-.076c1.292-8.24,7.051-15.666,15.167-18.09a20.471,20.471,0,0,1,21.955,7.5,23.476,23.476,0,0,1,4.385,9.975L55,27.582c4.778,5.7,3.253,15.1-.94,20.652,1.654,4.44,8.4,3.441,8.708-1.276l1.27-19.719a4.5,4.5,0,0,0-4.2-4.78" transform="translate(0 0)" fill="#fff"/>
    <path id="Path_6" data-name="Path 6" d="M58.821,39.564A10.965,10.965,0,0,0,49.339,34.5H49.2c-6.236.447-8.452,4.063-10.342,8.051l-.6,1.267-.586-1.275C35.847,38.569,33.118,34.5,26.739,34.5h-.16a10.931,10.931,0,0,0-9.5,6.315c-1.954,4.3-1.288,9.458.688,13.621,2.072,4.365,5.944,7.556,9.537,10.64,3.556,3.052,7.4,5.692,11.028,8.649,5.675-5.067,12.309-9.033,17.356-14.8a18.1,18.1,0,0,0,4.548-9.263C60.759,46.281,60.632,42.568,58.821,39.564Z" transform="translate(-3.953 -9.918)" fill="none" stroke="#fff" stroke-width="3"/>
  </g>
</svg>
