<?xml version="1.0" encoding="utf-8"?>
<!-- Generator: Adobe Illustrator 25.3.0, SVG Export Plug-In . SVG Version: 6.00 Build 0)  -->
<svg version="1.1" id="Layer_1" xmlns="http://www.w3.org/2000/svg" xmlns:xlink="http://www.w3.org/1999/xlink" x="0px" y="0px"
	 viewBox="0 0 34.9 34.9" style="enable-background:new 0 0 34.9 34.9;" xml:space="preserve">
<style type="text/css">
	.st0{fill:#DFE3FF;}
</style>
<path id="Icon_awesome-user-alt" class="st0" d="M17.4,19.6c5.4,0,9.8-4.4,9.8-9.8S22.9,0,17.4,0C12,0,7.6,4.4,7.6,9.8
	C7.6,15.2,12,19.6,17.4,19.6z M26.2,21.8h-3.8c-3.2,1.5-6.8,1.5-9.9,0H8.7c-4.8,0-8.7,3.9-8.7,8.7c0,0,0,0,0,0v1.1
	c0,1.8,1.5,3.3,3.3,3.3h28.3c1.8,0,3.3-1.5,3.3-3.3c0,0,0,0,0,0v-1.1C34.9,25.7,31,21.8,26.2,21.8L26.2,21.8z"/>
</svg>
